<svg xmlns="http://www.w3.org/2000/svg" width="32" height="32" viewBox="0 0 32 40" fill="none">

<path d="M24.9531 13.2437C23.1094 12.1312 22.3094 9.3375 23.1219 7.4375C23.7625 5.94063 26.0688 0.625 26.0688 0.625H18.0687L0.25 36.3031C0.25 36.3031 5.24688 32.9344 12.6219 36.1656C14.9281 37.1781 17.3562 38.1344 20.0906 37.9719C26.5281 37.5875 31.675 32.6187 32.2594 26.1906C32.7781 20.5187 29.5625 16.0219 24.9563 13.2406L24.9531 13.2437ZM27.0719 25.775C26.7094 29.4375 23.7469 32.4 20.0844 32.7594C15.1344 33.25 11.0188 29.1312 11.5031 24.1781C11.8656 20.5156 14.8281 17.5531 18.4906 17.1906C23.4438 16.7031 27.5625 20.8219 27.0719 25.775Z" fill="black"></path>

<path d="M22.9875 25.3533C22.8156 27.0939 21.4063 28.5033 19.6656 28.672C17.3125 28.9064 15.3563 26.947 15.5875 24.5939C15.7594 22.8533 17.1688 21.4439 18.9094 21.272C21.2625 21.0408 23.2219 22.997 22.9875 25.3533Z" fill="#FF6D00">
</path>

</svg>